<svg width="441.7812866210937px" height="126.8px" xmlns="http://www.w3.org/2000/svg" viewBox="29.109356689453136 11.600000000000001 441.7812866210937 126.8" style="background: rgba(0, 0, 0, 0);" preserveAspectRatio="xMidYMid"><filter id="editing-goldstamp"><feFlood flood-color="#91972a" result="flood"></feFlood><feMorphology operator="dilate" radius="2" in="SourceGraphic" result="outline"></feMorphology><feComposite operator="in" in="flood" in2="outline" result="outline2"></feComposite><feGaussianBlur stdDeviation="4" in="SourceAlpha" result="blur"></feGaussianBlur><feSpecularLighting surfaceScale="2" specularConstant="0.7" specularExponent="10" lighting-color="#white" in="blur" result="specular"><fePointLight x="200" y="-1000" z="300"></fePointLight></feSpecularLighting><feComposite operator="in" in="specular" in2="SourceGraphic" result="specular2"></feComposite><feComposite in="SourceGraphic" in2="specular2" operator="arithmetic" k1="3" k2="2" k3="1" k4="0" result="specular3"></feComposite><feMerge><feMergeNode in="outline2"></feMergeNode><feMergeNode in="specular3"></feMergeNode></feMerge></filter><g filter="url(#editing-goldstamp)"><g transform="translate(94.50999021530151, 107.12999725341797)"><path d="M29.57-14.66L29.57-14.66L29.57-14.66Q30.78-14.66 30.78-11.58L30.78-11.58L30.78-11.58Q30.78-8.51 29.63-6.08L29.63-6.08L29.63-6.08Q28.48-3.65 26.85-2.30L26.85-2.30L26.85-2.30Q25.22-0.96 23.17-0.13L23.17-0.13L23.17-0.13Q16.32 2.88 10.37-0.26L10.37-0.26L10.37-0.26Q7.36-1.86 5.76-4.06L5.76-4.06L5.76-4.06Q4.16-6.27 3.20-9.34L3.20-9.34L3.20-9.34Q1.73-13.95 1.73-19.01L1.73-19.01L1.73-19.01Q1.73-24.06 2.69-28.48L2.69-28.48L2.69-28.48Q3.65-32.90 5.63-36.90L5.63-36.90L5.63-36.90Q7.62-40.90 11.26-43.33L11.26-43.33L11.26-43.33Q14.91-45.76 19.71-45.76L19.71-45.76L19.71-45.76Q21.76-45.76 23.97-45.09L23.97-45.09L23.97-45.09Q26.18-44.42 27.58-43.42L27.58-43.42L27.58-43.42Q28.99-42.43 30.08-40.38L30.08-40.38L30.08-40.38Q31.17-38.34 31.17-35.58L31.17-35.58L31.17-35.58Q31.17-32.64 29.76-30.27L29.76-30.27L29.76-30.27Q29.12-29.18 27.71-28.32L27.71-28.32L27.71-28.32Q26.30-27.46 24.38-27.46L24.38-27.46L24.38-27.46Q21.44-27.46 20.22-30.08L20.22-30.08L20.22-30.08Q19.71-31.10 19.71-32.32L19.71-32.32L19.71-32.32Q19.71-33.54 20.54-33.73L20.54-33.73L20.54-33.73Q21.44-33.98 22.21-35.14L22.21-35.14L22.21-35.14Q22.98-36.29 22.98-37.82L22.98-37.82L22.98-37.82Q22.98-39.04 22.34-39.94L22.34-39.94L22.34-39.94Q21.12-41.54 18.82-41.54L18.82-41.54L18.82-41.54Q16.51-41.54 14.62-39.42L14.62-39.42L14.62-39.42Q12.74-37.31 11.78-34.11L11.78-34.11L11.78-34.11Q9.86-27.71 9.86-22.34L9.86-22.34L9.86-22.34Q9.86-16.96 11.33-13.70L11.33-13.70L11.33-13.70Q13.12-9.66 15.87-8.32L15.87-8.32L15.87-8.32Q17.60-7.49 19.84-7.49L19.84-7.49L19.84-7.49Q23.62-7.49 26.62-10.88L26.62-10.88L26.62-10.88Q27.90-12.22 28.74-14.08L28.74-14.08L28.74-14.08Q29.06-14.66 29.57-14.66ZM56.96-28.48L56.96-28.48L56.96-28.48Q55.81-21.57 55.81-10.88L55.81-10.88L55.81-10.88Q55.81-3.01 56.45-0.51L56.45-0.51L56.70 0.32L56.70 0.32Q56.70 1.15 55.30 1.15L55.30 1.15L55.30 1.15Q50.37 1.15 49.66-1.60L49.66-1.60L49.66-1.60Q49.60-1.92 49.38-1.92L49.38-1.92L49.38-1.92Q49.15-1.92 48.96-1.66L48.96-1.66L48.96-1.66Q46.98 0.96 42.82 0.96L42.82 0.96L42.82 0.96Q40.51 0.96 38.02-0.19L38.02-0.19L38.02-0.19Q36.48-0.90 35.52-2.66L35.52-2.66L35.52-2.66Q34.56-4.42 34.56-6.98L34.56-6.98L35.52-20.99L35.52-20.99Q35.52-25.41 34.62-27.26L34.62-27.26L34.62-27.26Q34.30-27.97 34.30-28.16L34.30-28.16L34.30-28.16Q34.30-28.54 34.62-28.67L34.62-28.67L34.62-28.67Q35.65-28.99 37.25-28.99L37.25-28.99L37.25-28.99Q43.46-28.99 43.46-23.87L43.46-23.87L43.46-23.87Q43.46-22.27 42.14-16.58L42.14-16.58L42.14-16.58Q40.83-10.88 40.83-8.48L40.83-8.48L40.83-8.48Q40.83-6.08 41.89-4.80L41.89-4.80L41.89-4.80Q42.94-3.52 44.83-3.52L44.83-3.52L44.83-3.52Q46.72-3.52 47.81-4.86L47.81-4.86L47.81-4.86Q48.90-6.21 49.09-7.55L49.09-7.55L49.28-8.90L49.28-8.90Q49.54-11.14 49.54-16.77L49.54-16.77L49.54-16.77Q49.54-22.40 49.18-23.90L49.18-23.90L49.18-23.90Q48.83-25.41 48.83-25.79L48.83-25.79L48.83-25.79Q48.83-27.39 51.39-28.32L51.39-28.32L51.39-28.32Q53.95-29.25 56-29.25L56-29.25L56-29.25Q56.96-29.25 56.96-28.48ZM68.67-36.61L68.67-36.61L68.29-13.12L68.29-13.12Q68.29-2.11 68.99 0.06L68.99 0.06L68.99 0.06Q69.18 0.45 69.18 0.83L69.18 0.83L69.18 0.83Q69.18 1.60 67.33 1.60L67.33 1.60L67.33 1.60Q65.47 1.60 63.20 0.67L63.20 0.67L63.20 0.67Q60.93-0.26 60.93-1.73L60.93-1.73L60.93-1.73Q62.21-10.69 62.21-25.66L62.21-25.66L61.95-35.46L61.95-35.46Q61.82-37.25 61.22-38.53L61.22-38.53L61.22-38.53Q60.61-39.81 60.03-40.19L60.03-40.19L59.52-40.51L59.52-40.51Q59.07-40.77 59.07-41.09L59.07-41.09L59.07-41.09Q59.07-41.98 61.86-43.30L61.86-43.30L61.86-43.30Q64.64-44.61 67.26-44.61L67.26-44.61L67.26-44.61Q68.29-44.61 68.42-43.90L68.42-43.90L68.42-43.90Q68.67-42.24 68.67-36.61ZM79.62-34.24L79.62-34.24L78.08-34.30L78.08-34.30Q76.35-34.30 75.84-33.47L75.84-33.47L75.84-33.47Q75.71-33.28 75.52-33.28L75.52-33.28L75.52-33.28Q74.69-33.28 74.69-36.13L74.69-36.13L74.69-36.13Q74.69-38.98 75.55-39.74L75.55-39.74L75.55-39.74Q76.42-40.51 78.56-40.51L78.56-40.51L78.56-40.51Q80.70-40.51 81.47-39.78L81.47-39.78L81.47-39.78Q82.24-39.04 82.24-37.31L82.24-37.31L82.24-37.31Q82.24-35.58 81.66-34.91L81.66-34.91L81.66-34.91Q81.09-34.24 79.62-34.24ZM74.50-1.92L74.50-1.92L75.20-16.83L75.20-16.83Q75.20-22.14 73.98-24.06L73.98-24.06L73.98-24.06Q73.60-24.70 73.09-25.02L73.09-25.02L73.09-25.02Q72.70-25.15 72.70-25.54L72.70-25.54L72.70-25.54Q72.70-26.69 75.97-27.78L75.97-27.78L75.97-27.78Q79.23-28.86 80.74-28.86L80.74-28.86L80.74-28.86Q82.24-28.86 82.30-28.10L82.30-28.10L82.30-28.10Q82.30-26.82 81.95-20.83L81.95-20.83L81.95-20.83Q81.60-14.85 81.60-8.26L81.60-8.26L81.60-8.26Q81.60-1.66 82.37-0.06L82.37-0.06L82.37-0.06Q82.56 0.26 82.56 0.58L82.56 0.58L82.56 0.58Q82.56 1.41 80.13 1.41L80.13 1.41L80.13 1.41Q77.70 1.41 75.14 0.13L75.14 0.13L75.14 0.13Q74.50-0.19 74.50-1.92ZM86.46 0.45L86.46 0.45L86.46 0.45Q87.62-6.46 87.62-16.13L87.62-16.13L87.62-16.13Q87.62-25.79 87.04-28.67L87.04-28.67L87.04-28.67Q87.04-29.50 88.96-29.50L88.96-29.50L88.96-29.50Q91.90-29.50 92.86-27.26L92.86-27.26L92.86-27.26Q92.93-27.07 93.18-27.07L93.18-27.07L93.18-27.07Q93.44-27.07 93.57-27.20L93.57-27.20L93.57-27.20Q95.55-29.25 99.71-29.25L99.71-29.25L99.71-29.25Q103.87-29.25 106.30-27.14L106.30-27.14L106.30-27.14Q108.74-25.02 108.74-20.99L108.74-20.99L108.74-20.99Q108.74-18.56 108.32-14.08L108.32-14.08L108.32-14.08Q107.90-9.60 107.90-7.42L107.90-7.42L107.90-7.42Q107.90-2.24 109.63 0.06L109.63 0.06L109.63 0.06Q109.89 0.38 109.89 0.70L109.89 0.70L109.89 0.70Q109.89 1.54 108.10 1.54L108.10 1.54L108.10 1.54Q100.16 1.54 100.16-5.50L100.16-5.50L100.16-5.50Q100.16-8.19 101.38-12.99L101.38-12.99L101.38-12.99Q102.59-17.79 102.59-20.29L102.59-20.29L102.59-20.29Q102.59-25.41 98.37-25.41L98.37-25.41L98.37-25.41Q96.32-25.41 95.26-24.19L95.26-24.19L95.26-24.19Q94.21-22.98 94.08-21.41L94.08-21.41L94.08-21.41Q93.95-19.84 93.95-15.49L93.95-15.49L93.95-15.49Q93.95-8.83 94.40-3.90L94.40-3.90L94.53-2.50L94.53-2.50Q94.53-0.70 92.19 0.29L92.19 0.29L92.19 0.29Q89.86 1.28 88.16 1.28L88.16 1.28L88.16 1.28Q86.46 1.28 86.46 0.45ZM133.38-19.20L133.38-19.20L133.25-11.01L133.25-11.01Q133.25-2.50 135.10-0.77L135.10-0.77L135.10-0.77Q135.36-0.51 135.36-0.19L135.36-0.19L135.36-0.19Q135.36 0.77 131.23 0.77L131.23 0.77L131.23 0.77Q127.10 0.77 126.85-1.66L126.85-1.66L126.85-1.66Q126.78-2.24 126.78-4.03L126.78-4.03L127.04-14.27L127.04-14.27Q127.04-14.72 126.53-14.72L126.53-14.72L126.53-14.72Q123.46-14.72 120.77-12.99L120.77-12.99L120.77-12.99Q118.08-11.26 118.08-8.58L118.08-8.58L118.08-8.58Q118.08-7.17 118.85-6.21L118.85-6.21L118.85-6.21Q119.62-5.25 120.74-5.25L120.74-5.25L120.74-5.25Q121.86-5.25 122.59-5.70L122.59-5.70L122.59-5.70Q123.33-6.14 123.46-6.21L123.46-6.21L123.46-6.21Q124.54-6.08 124.54-3.94L124.54-3.94L124.54-3.94Q124.54-1.79 122.56-0.48L122.56-0.48L122.56-0.48Q120.58 0.83 118.40 0.83L118.40 0.83L118.40 0.83Q116.22 0.83 114.66 0.06L114.66 0.06L114.66 0.06Q113.09-0.70 112.38-1.66L112.38-1.66L112.38-1.66Q111.68-2.62 111.23-3.84L111.23-3.84L111.23-3.84Q110.78-5.31 110.78-6.40L110.78-6.40L110.78-6.40Q110.78-10.88 113.60-13.57L113.60-13.57L113.60-13.57Q116.42-16.26 120.83-17.41L120.83-17.41L120.83-17.41Q126.66-18.56 126.91-19.52L126.91-19.52L126.91-19.52Q127.10-20.22 127.10-21.89L127.10-21.89L127.10-21.89Q127.10-25.28 123.65-25.28L123.65-25.28L123.65-25.28Q122.18-25.28 121.02-24.35L121.02-24.35L121.02-24.35Q119.87-23.42 119.87-22.02L119.87-22.02L120.26-20.48L120.26-20.48Q120.13-19.39 117.95-19.20L117.95-19.20L117.25-19.14L117.25-19.14Q115.33-19.14 114.21-20.10L114.21-20.10L114.21-20.10Q113.09-21.06 113.09-22.66L113.09-22.66L113.09-22.66Q113.09-23.68 113.76-24.93L113.76-24.93L113.76-24.93Q114.43-26.18 115.46-26.94L115.46-26.94L115.46-26.94Q116.48-27.71 118.62-28.32L118.62-28.32L118.62-28.32Q120.77-28.93 122.75-28.93L122.75-28.93L122.75-28.93Q124.74-28.93 125.82-28.80L125.82-28.80L125.82-28.80Q126.91-28.67 128.80-28.19L128.80-28.19L128.80-28.19Q130.69-27.71 131.94-26.37L131.94-26.37L131.94-26.37Q133.18-25.02 133.28-23.52L133.28-23.52L133.28-23.52Q133.38-22.02 133.38-19.20ZM157.12-22.02L156.80-17.15L157.06-14.91L157.06-14.91Q157.06-13.70 154.75-13.70L154.75-13.70L154.75-13.70Q150.08-13.70 150.08-17.22L150.08-17.22L150.08-17.22Q150.08-18.05 150.53-19.52L150.53-19.52L150.53-19.52Q150.98-20.99 150.98-22.08L150.98-22.08L150.98-22.08Q150.98-23.17 150.34-23.97L150.34-23.97L150.34-23.97Q149.70-24.77 148.48-24.77L148.48-24.77L148.48-24.77Q147.26-24.77 146.40-23.90L146.40-23.90L146.40-23.90Q145.54-23.04 145.34-22.14L145.34-22.14L145.09-21.25L145.09-21.25Q144.70-19.26 144.70-14.62L144.70-14.62L144.70-14.62Q144.70-9.98 144.83-7.33L144.83-7.33L144.83-7.33Q144.96-4.67 145.09-3.68L145.09-3.68L145.09-3.68Q145.22-2.69 145.22-2.50L145.22-2.50L145.22-2.50Q145.22-0.90 143.23 0.10L143.23 0.10L143.23 0.10Q141.25 1.09 139.26 1.09L139.26 1.09L139.26 1.09Q137.28 1.09 137.28 0.26L137.28 0.26L137.60-1.73L137.60-1.73Q138.50-7.30 138.50-16.26L138.50-16.26L138.50-16.26Q138.50-25.22 137.86-28.42L137.86-28.42L137.86-28.42Q137.86-29.18 139.20-29.18L139.20-29.18L139.20-29.18Q142.66-29.18 143.81-26.82L143.81-26.82L143.81-26.82Q143.87-26.56 144.03-26.56L144.03-26.56L144.03-26.56Q144.19-26.56 144.90-27.14L144.90-27.14L144.90-27.14Q147.01-28.86 149.89-28.86L149.89-28.86L149.89-28.86Q151.68-28.86 153.47-28.16L153.47-28.16L153.47-28.16Q157.12-26.69 157.12-22.02L157.12-22.02ZM171.33 17.73L171.33 17.73L171.33 17.73Q171.33 18.50 170.56 18.50L170.56 18.50L170.50 18.50L170.50 18.50Q168.38 18.50 165.73 17.02L165.73 17.02L165.73 17.02Q163.07 15.55 163.07 13.63L163.07 13.63L163.07 13.63Q163.07 11.71 165.50 6.94L165.50 6.94L165.50 6.94Q167.94 2.18 167.94 0.58L167.94 0.58L167.94 0.58Q167.94-1.15 166.27-5.63L166.27-5.63L166.27-5.63Q164.16-11.46 162.91-15.10L162.91-15.10L162.91-15.10Q161.66-18.75 160.22-21.54L160.22-21.54L160.22-21.54Q158.78-24.32 158.14-24.83L158.14-24.83L157.50-25.28L157.50-25.28Q156.80-25.66 156.80-26.11L156.80-26.11L156.80-26.11Q156.80-27.01 159.58-27.94L159.58-27.94L159.58-27.94Q162.37-28.86 164.48-28.86L164.48-28.86L164.48-28.86Q165.44-28.86 166.08-27.33L166.08-27.33L166.08-27.33Q167.23-24.32 168.58-19.01L168.58-19.01L168.58-19.01Q171.84-8.13 172.67-8.13L172.67-8.13L172.67-8.13Q173.25-8.13 175.01-12.61L175.01-12.61L175.01-12.61Q176.77-17.09 176.77-19.84L176.77-19.84L176.77-19.84Q176.77-24.64 173.95-25.47L173.95-25.47L173.95-25.47Q173.31-25.60 173.31-26.11L173.31-26.11L173.31-26.11Q173.31-27.26 176.32-28.32L176.32-28.32L176.32-28.32Q179.33-29.38 181.76-29.38L181.76-29.38L181.76-29.38Q183.87-29.38 183.87-26.62L183.87-26.62L183.87-26.62Q183.87-24.51 182.98-21.70L182.98-21.70L182.98-21.70Q182.08-18.88 181.31-17.25L181.31-17.25L181.31-17.25Q180.54-15.62 177.50-9.70L177.50-9.70L177.50-9.70Q174.46-3.78 172.48 0.70L172.48 0.70L172.48 0.70Q170.30 6.08 170.30 11.65L170.30 11.65L170.30 11.65Q170.30 14.59 170.82 16.06L170.82 16.06L170.82 16.06Q171.33 17.54 171.33 17.73ZM212.54-14.66L212.54-14.66L212.54-14.66Q213.76-14.66 213.76-11.58L213.76-11.58L213.76-11.58Q213.76-8.51 212.61-6.08L212.61-6.08L212.61-6.08Q211.46-3.65 209.82-2.30L209.82-2.30L209.82-2.30Q208.19-0.96 206.14-0.13L206.14-0.13L206.14-0.13Q199.30 2.88 193.34-0.26L193.34-0.26L193.34-0.26Q190.34-1.86 188.74-4.06L188.74-4.06L188.74-4.06Q187.14-6.27 186.18-9.34L186.18-9.34L186.18-9.34Q184.70-13.95 184.70-19.01L184.70-19.01L184.70-19.01Q184.70-24.06 185.66-28.48L185.66-28.48L185.66-28.48Q186.62-32.90 188.61-36.90L188.61-36.90L188.61-36.90Q190.59-40.90 194.24-43.33L194.24-43.33L194.24-43.33Q197.89-45.76 202.69-45.76L202.69-45.76L202.69-45.76Q204.74-45.76 206.94-45.09L206.94-45.09L206.94-45.09Q209.15-44.42 210.56-43.42L210.56-43.42L210.56-43.42Q211.97-42.43 213.06-40.38L213.06-40.38L213.06-40.38Q214.14-38.34 214.14-35.58L214.14-35.58L214.14-35.58Q214.14-32.64 212.74-30.27L212.74-30.27L212.74-30.27Q212.10-29.18 210.69-28.32L210.69-28.32L210.69-28.32Q209.28-27.46 207.36-27.46L207.36-27.46L207.36-27.46Q204.42-27.46 203.20-30.08L203.20-30.08L203.20-30.08Q202.69-31.10 202.69-32.32L202.69-32.32L202.69-32.32Q202.69-33.54 203.52-33.73L203.52-33.73L203.52-33.73Q204.42-33.98 205.18-35.14L205.18-35.14L205.18-35.14Q205.95-36.29 205.95-37.82L205.95-37.82L205.95-37.82Q205.95-39.04 205.31-39.94L205.31-39.94L205.31-39.94Q204.10-41.54 201.79-41.54L201.79-41.54L201.79-41.54Q199.49-41.54 197.60-39.42L197.60-39.42L197.60-39.42Q195.71-37.31 194.75-34.11L194.75-34.11L194.75-34.11Q192.83-27.71 192.83-22.34L192.83-22.34L192.83-22.34Q192.83-16.96 194.30-13.70L194.30-13.70L194.30-13.70Q196.10-9.66 198.85-8.32L198.85-8.32L198.85-8.32Q200.58-7.49 202.82-7.49L202.82-7.49L202.82-7.49Q206.59-7.49 209.60-10.88L209.60-10.88L209.60-10.88Q210.88-12.22 211.71-14.08L211.71-14.08L211.71-14.08Q212.03-14.66 212.54-14.66ZM237.12-22.02L236.80-17.15L237.06-14.91L237.06-14.91Q237.06-13.70 234.75-13.70L234.75-13.70L234.75-13.70Q230.08-13.70 230.08-17.22L230.08-17.22L230.08-17.22Q230.08-18.05 230.53-19.52L230.53-19.52L230.53-19.52Q230.98-20.99 230.98-22.08L230.98-22.08L230.98-22.08Q230.98-23.17 230.34-23.97L230.34-23.97L230.34-23.97Q229.70-24.77 228.48-24.77L228.48-24.77L228.48-24.77Q227.26-24.77 226.40-23.90L226.40-23.90L226.40-23.90Q225.54-23.04 225.34-22.14L225.34-22.14L225.09-21.25L225.09-21.25Q224.70-19.26 224.70-14.62L224.70-14.62L224.70-14.62Q224.70-9.98 224.83-7.33L224.83-7.33L224.83-7.33Q224.96-4.67 225.09-3.68L225.09-3.68L225.09-3.68Q225.22-2.69 225.22-2.50L225.22-2.50L225.22-2.50Q225.22-0.90 223.23 0.10L223.23 0.10L223.23 0.10Q221.25 1.09 219.26 1.09L219.26 1.09L219.26 1.09Q217.28 1.09 217.28 0.26L217.28 0.26L217.60-1.73L217.60-1.73Q218.50-7.30 218.50-16.26L218.50-16.26L218.50-16.26Q218.50-25.22 217.86-28.42L217.86-28.42L217.86-28.42Q217.86-29.18 219.20-29.18L219.20-29.18L219.20-29.18Q222.66-29.18 223.81-26.82L223.81-26.82L223.81-26.82Q223.87-26.56 224.03-26.56L224.03-26.56L224.03-26.56Q224.19-26.56 224.90-27.14L224.90-27.14L224.90-27.14Q227.01-28.86 229.89-28.86L229.89-28.86L229.89-28.86Q231.68-28.86 233.47-28.16L233.47-28.16L233.47-28.16Q237.12-26.69 237.12-22.02L237.12-22.02ZM259.90-19.20L259.90-19.20L259.78-11.01L259.78-11.01Q259.78-2.50 261.63-0.77L261.63-0.77L261.63-0.77Q261.89-0.51 261.89-0.19L261.89-0.19L261.89-0.19Q261.89 0.77 257.76 0.77L257.76 0.77L257.76 0.77Q253.63 0.77 253.38-1.66L253.38-1.66L253.38-1.66Q253.31-2.24 253.31-4.03L253.31-4.03L253.57-14.27L253.57-14.27Q253.57-14.72 253.06-14.72L253.06-14.72L253.06-14.72Q249.98-14.72 247.30-12.99L247.30-12.99L247.30-12.99Q244.61-11.26 244.61-8.58L244.61-8.58L244.61-8.58Q244.61-7.17 245.38-6.21L245.38-6.21L245.38-6.21Q246.14-5.25 247.26-5.25L247.26-5.25L247.26-5.25Q248.38-5.25 249.12-5.70L249.12-5.70L249.12-5.70Q249.86-6.14 249.98-6.21L249.98-6.21L249.98-6.21Q251.07-6.08 251.07-3.94L251.07-3.94L251.07-3.94Q251.07-1.79 249.09-0.48L249.09-0.48L249.09-0.48Q247.10 0.83 244.93 0.83L244.93 0.83L244.93 0.83Q242.75 0.83 241.18 0.06L241.18 0.06L241.18 0.06Q239.62-0.70 238.91-1.66L238.91-1.66L238.91-1.66Q238.21-2.62 237.76-3.84L237.76-3.84L237.76-3.84Q237.31-5.31 237.31-6.40L237.31-6.40L237.31-6.40Q237.31-10.88 240.13-13.57L240.13-13.57L240.13-13.57Q242.94-16.26 247.36-17.41L247.36-17.41L247.36-17.41Q253.18-18.56 253.44-19.52L253.44-19.52L253.44-19.52Q253.63-20.22 253.63-21.89L253.63-21.89L253.63-21.89Q253.63-25.28 250.18-25.28L250.18-25.28L250.18-25.28Q248.70-25.28 247.55-24.35L247.55-24.35L247.55-24.35Q246.40-23.42 246.40-22.02L246.40-22.02L246.78-20.48L246.78-20.48Q246.66-19.39 244.48-19.20L244.48-19.20L243.78-19.14L243.78-19.14Q241.86-19.14 240.74-20.10L240.74-20.10L240.74-20.10Q239.62-21.06 239.62-22.66L239.62-22.66L239.62-22.66Q239.62-23.68 240.29-24.93L240.29-24.93L240.29-24.93Q240.96-26.18 241.98-26.94L241.98-26.94L241.98-26.94Q243.01-27.71 245.15-28.32L245.15-28.32L245.15-28.32Q247.30-28.93 249.28-28.93L249.28-28.93L249.28-28.93Q251.26-28.93 252.35-28.80L252.35-28.80L252.35-28.80Q253.44-28.67 255.33-28.19L255.33-28.19L255.33-28.19Q257.22-27.71 258.46-26.37L258.46-26.37L258.46-26.37Q259.71-25.02 259.81-23.52L259.81-23.52L259.81-23.52Q259.90-22.02 259.90-19.20ZM278.24-27.65L278.24-27.65L278.24-27.65Q280.96-28.99 283.65-28.99L283.65-28.99L283.65-28.99Q286.34-28.99 286.34-23.42L286.34-23.42L286.34-23.42Q286.34-19.33 284.83-15.10L284.83-15.10L284.83-15.10Q283.33-10.88 281.09-7.68L281.09-7.68L281.09-7.68Q276.48-0.96 272.77 1.28L272.77 1.28L272.77 1.28Q271.87 1.79 271.42 1.79L271.42 1.79L271.42 1.79Q270.98 1.79 270.50 0.83L270.50 0.83L270.50 0.83Q270.02-0.13 269.02-3.39L269.02-3.39L269.02-3.39Q268.03-6.66 267.39-9.22L267.39-9.22L266.82-11.84L266.82-11.84Q265.54-17.47 264.32-20.83L264.32-20.83L264.32-20.83Q263.10-24.19 262.53-24.70L262.53-24.70L261.89-25.28L261.89-25.28Q261.25-25.60 261.25-26.05L261.25-26.05L261.57-26.62L261.57-26.62Q262.40-27.39 264.35-28.19L264.35-28.19L264.35-28.19Q266.30-28.99 268.67-28.99L268.67-28.99L268.67-28.99Q269.76-28.99 270.02-27.78L270.02-27.78L270.02-27.78Q270.98-24.83 271.68-20.86L271.68-20.86L271.68-20.86Q272.38-16.90 273.57-11.90L273.57-11.90L273.57-11.90Q274.75-6.91 275.52-6.85L275.52-6.85L275.52-6.85Q275.90-6.85 276.38-7.42L276.38-7.42L276.38-7.42Q276.86-8 277.54-8.96L277.54-8.96L277.54-8.96Q278.21-9.92 279.20-12.67L279.20-12.67L279.20-12.67Q280.19-15.42 280.19-17.38L280.19-17.38L280.19-17.38Q280.19-19.33 280.03-20.38L280.03-20.38L280.03-20.38Q279.87-21.44 278.91-22.85L278.91-22.85L278.91-22.85Q277.95-24.26 276.74-24.48L276.74-24.48L276.74-24.48Q275.52-24.70 275.52-25.28L275.52-25.28L275.52-25.28Q275.52-26.30 278.24-27.65ZM294.66-16.26L294.66-16.26L294.72-14.66L294.72-14.66Q294.72-14.27 295.23-14.27L295.23-14.27L295.23-14.27Q297.28-14.46 298.82-15.33L298.82-15.33L298.82-15.33Q300.35-16.19 301.12-17.28L301.12-17.28L301.12-17.28Q302.66-19.65 302.78-21.38L302.78-21.38L302.85-22.14L302.85-22.14Q302.85-25.60 300.10-25.60L300.10-25.60L300.10-25.60Q298.05-25.60 296.77-23.81L296.77-23.81L296.77-23.81Q294.66-20.99 294.66-16.26ZM308.61-7.74L308.61-7.74L308.61-7.74Q308.61-5.31 307.62-3.49L307.62-3.49L307.62-3.49Q306.62-1.66 305.38-0.80L305.38-0.80L305.38-0.80Q304.13 0.06 302.46 0.58L302.46 0.58L302.46 0.58Q300.35 1.22 298.43 1.22L298.43 1.22L298.43 1.22Q293.06 1.22 290.50-2.82L290.50-2.82L290.50-2.82Q287.94-6.85 287.94-13.09L287.94-13.09L287.94-13.09Q287.94-19.33 291.10-24.19L291.10-24.19L291.10-24.19Q294.27-29.06 300.61-29.06L300.61-29.06L300.61-29.06Q306.37-29.06 308.42-25.02L308.42-25.02L308.42-25.02Q309.25-23.49 309.25-22.11L309.25-22.11L309.25-22.11Q309.25-20.74 309.12-19.94L309.12-19.94L309.12-19.94Q308.99-19.14 308.22-17.54L308.22-17.54L308.22-17.54Q307.46-15.94 306.18-14.66L306.18-14.66L306.18-14.66Q304.90-13.38 302.14-12.22L302.14-12.22L302.14-12.22Q299.39-11.07 295.68-10.69L295.68-10.69L295.68-10.69Q295.17-10.69 295.17-10.24L295.17-10.24L295.17-10.24Q295.17-9.66 295.58-8.54L295.58-8.54L295.58-8.54Q296.00-7.42 296.51-6.66L296.51-6.66L296.51-6.66Q297.92-4.86 300.67-4.86L300.67-4.86L300.67-4.86Q303.42-4.86 305.34-6.66L305.34-6.66L305.34-6.66Q306.37-7.62 307.01-9.02L307.01-9.02L307.01-9.02Q307.26-9.54 307.68-9.54L307.68-9.54L307.68-9.54Q308.10-9.54 308.35-8.83L308.35-8.83L308.35-8.83Q308.61-8.13 308.61-7.74Z" fill="#f2f4f3"></path></g></g><style>text {
  font-size: 64px;
  font-family: Arial Black;
  dominant-baseline: central;
  text-anchor: middle;
}</style></svg>